<?xml version="1.0" encoding="UTF-8" standalone="no"?>
<svg
   xmlns:dc="http://purl.org/dc/elements/1.1/"
   xmlns:cc="http://creativecommons.org/ns#"
   xmlns:rdf="http://www.w3.org/1999/02/22-rdf-syntax-ns#"
   xmlns:svg="http://www.w3.org/2000/svg"
   xmlns="http://www.w3.org/2000/svg"
   version="1.1"
   id="svg2"
   viewBox="0 0 390.41177 287.86061"
   height="81.240662mm"
   width="110.18288mm">
  <defs
     id="defs4">
    <marker
       style="overflow:visible"
       id="Arrow1Lend"
       refX="0"
       refY="0"
       orient="auto">
      <path
         transform="matrix(-0.8,0,0,-0.8,-10,0)"
         style="fill:#000000;fill-opacity:1;fill-rule:evenodd;stroke:#000000;stroke-width:1pt;stroke-opacity:1"
         d="M 0,0 5,-5 -12.5,0 5,5 0,0 Z"
         id="path4145" />
    </marker>
    <marker
       style="overflow:visible"
       id="Arrow1Lstart"
       refX="0"
       refY="0"
       orient="auto">
      <path
         transform="matrix(0.8,0,0,0.8,10,0)"
         style="fill:#000000;fill-opacity:1;fill-rule:evenodd;stroke:#000000;stroke-width:1pt;stroke-opacity:1"
         d="M 0,0 5,-5 -12.5,0 5,5 0,0 Z"
         id="path4142" />
    </marker>
  </defs>
  <metadata
     id="metadata7">
    <rdf:RDF>
      <cc:Work
         rdf:about="">
        <dc:format>image/svg+xml</dc:format>
        <dc:type
           rdf:resource="http://purl.org/dc/dcmitype/StillImage" />
        <dc:title></dc:title>
      </cc:Work>
    </rdf:RDF>
  </metadata>
  <g
     transform="translate(-38.116492,-57.049375)"
     id="layer1">
    <path
       id="path4136"
       d="m 68.690373,62.41271 0,229.30463 287.893477,0"
       style="fill:none;fill-rule:evenodd;stroke:#000000;stroke-width:1px;stroke-linecap:butt;stroke-linejoin:miter;stroke-opacity:1;marker-start:url(#Arrow1Lstart);marker-end:url(#Arrow1Lend)" />
    <path
       id="path4450"
       d="m 89.903577,263.43307 c 0,0 33.735793,-4.65555 50.507623,-7.57615 22.15184,-3.85746 44.86767,-5.92035 66.165,-13.13198 10.84007,-3.67063 21.00326,-9.25183 30.80965,-15.15229 16.73647,-10.07025 33.4275,-20.77589 47.47717,-34.34519 9.66526,-9.33479 17.80522,-20.31575 24.74874,-31.8198 9.07203,-15.03058 14.97046,-31.77463 21.71828,-47.98225 4.3625,-10.47831 12.12183,-31.819802 12.12183,-31.819802 l 0,0"
       style="fill:none;fill-rule:evenodd;stroke:#000000;stroke-width:1px;stroke-linecap:butt;stroke-linejoin:miter;stroke-opacity:1" />
    <text
       id="text4452"
       y="319.49655"
       x="55.053318"
       style="font-style:normal;font-weight:normal;font-size:40px;line-height:125%;font-family:sans-serif;letter-spacing:0px;word-spacing:0px;fill:#000000;fill-opacity:1;stroke:none;stroke-width:1px;stroke-linecap:butt;stroke-linejoin:miter;stroke-opacity:1"
       xml:space="preserve"><tspan
         style="font-size:15px"
         y="319.49655"
         x="55.053318"
         id="tspan4454">time scale:</tspan><tspan
         id="tspan4474"
         style="font-size:15px"
         y="338.24655"
         x="55.053318">requirements, design, coding, testing, production</tspan></text>
    <text
       transform="matrix(9.9115329e-4,-0.99999951,0.99999951,9.9115329e-4,0,0)"
       id="text4452-3"
       y="53.245617"
       x="-236.43433"
       style="font-style:normal;font-weight:normal;font-size:40px;line-height:125%;font-family:sans-serif;letter-spacing:0px;word-spacing:0px;fill:#000000;fill-opacity:1;stroke:none;stroke-width:1px;stroke-linecap:butt;stroke-linejoin:miter;stroke-opacity:1"
       xml:space="preserve"><tspan
         style="font-size:15px"
         y="53.245617"
         x="-236.43433"
         id="tspan4454-6">cost of change</tspan></text>
  </g>
</svg>
